<?xml version="1.0" encoding="UTF-8"?>
<!DOCTYPE svg PUBLIC "-//W3C//DTD SVG 1.1//EN" "http://www.w3.org/Graphics/SVG/1.1/DTD/svg11.dtd">
<!-- Creator: CorelDRAW 2021.5 -->
<svg xmlns="http://www.w3.org/2000/svg" xml:space="preserve" width="0.55085in" height="0.511594in" version="1.1" style="shape-rendering:geometricPrecision; text-rendering:geometricPrecision; image-rendering:optimizeQuality; fill-rule:evenodd; clip-rule:evenodd"
viewBox="0 0 141.26 131.2"
 xmlns:xlink="http://www.w3.org/1999/xlink"
 xmlns:xodm="http://www.corel.com/coreldraw/odm/2003">
 <defs>
  <style type="text/css">
   <![CDATA[
    .fil3 {fill:none}
    .fil7 {fill:#AB4B9B}
    .fil6 {fill:#9C3993}
    .fil8 {fill:#7D3B93}
    .fil5 {fill:#6574B6}
    .fil1 {fill:#6C3D94}
    .fil4 {fill:#494B9C}
    .fil2 {fill:#403780}
    .fil0 {fill:#A8CF45;fill-rule:nonzero}
   ]]>
  </style>
    <clipPath id="id0">
     <path d="M30.72 102.89c1.31,-8.08 2.61,-16.16 3.92,-24.24 -0.63,8.03 -1.91,16.71 12.08,10.07 28.69,-16.48 56.73,-35.17 84.55,-54.64 -18.49,24.82 -39.4,46.11 -62.68,63.96 -6.64,3.11 -13.28,6.22 -19.91,9.32 -7.11,1.35 -13.02,-0.35 -17.95,-4.48z"/>
    </clipPath>
    <clipPath id="id1">
     <path d="M23.7 55.9c7.57,-10.66 17.18,-16.94 28.24,-20.14 -17.69,45.73 -31.46,87.27 17.95,61.35 -8.97,6.7 -19.8,12.36 -30.03,18.28 -15.26,9.41 -26.91,-2.76 -23.83,-21.44 1.64,-13.2 4.29,-25.83 7.67,-38.04z"/>
    </clipPath>
    <clipPath id="id2">
     <path d="M26.55 46.91c-1.11,3.74 -2.22,7.48 -3.34,11.22 4.9,-8.54 14.49,-15.8 21.89,-18.19 9.92,-3.21 10.42,3.64 13.6,12.38 8.39,23.05 13.8,47.37 26.85,60.08 6.26,7.89 18.55,4.97 18.77,-7.09 0,-9.7 -8.98,-6.71 -14.2,-21.26 -5.24,-14.05 -9.44,-28.84 -14.75,-42.78 -4.16,-10.94 -12.16,-31.97 -24.75,-30.92 -5.57,0.46 -10.56,5.64 -14.9,13.31 -4.36,7.69 -6.65,14.74 -9.18,23.25z"/>
    </clipPath>
 </defs>
 <g id="Layer_x0020_1">
  <metadata id="CorelCorpID_0Corel-Layer"/>
  <g id="_2029962788976">
   <g>
    <path class="fil0" d="M124.82 5.34l-108.38 0 0 -5.34 108.38 0 0 0 0 5.34zm16.44 11.25l-5.03 0 0 0 -0.02 -0.57 -0.04 -0.56 -0.07 -0.55 -0.1 -0.55 -0.12 -0.53 -0.15 -0.53 -0.17 -0.52 -0.2 -0.5 -0.23 -0.5 -0.25 -0.48 -0.27 -0.47 -0.29 -0.46 -0.31 -0.44 -0.34 -0.43 -0.36 -0.41 -0.38 -0.39 -0.4 -0.38 -0.41 -0.36 -0.43 -0.34 -0.45 -0.32 -0.47 -0.3 -0.48 -0.28 -0.49 -0.25 -0.51 -0.23 -0.52 -0.21 -0.53 -0.18 -0.55 -0.16 -0.55 -0.13 -0.56 -0.1 -0.58 -0.07 -0.58 -0.04 -0.59 -0.02 0 -5.34 0.83 0.02 0.82 0.06 0.81 0.1 0.8 0.14 0.79 0.18 0.77 0.22 0.76 0.26 0.74 0.29 0.72 0.33 0.71 0.36 0.69 0.4 0.66 0.43 0.64 0.46 0.62 0.49 0.6 0.52 0.57 0.54 0.55 0.57 0.52 0.6 0.49 0.62 0.46 0.65 0.43 0.67 0.4 0.7 0.37 0.72 0.34 0.74 0.3 0.76 0.26 0.78 0.23 0.79 0.19 0.81 0.15 0.82 0.11 0.84 0.07 0.85 0.02 0.86 0 0zm-5.03 98l0 -98 5.03 0 0 98 0 0 -5.03 0zm-11.41 16.6l0 -5.34 0 0 0.59 -0.02 0.58 -0.04 0.58 -0.07 0.56 -0.1 0.55 -0.13 0.55 -0.16 0.53 -0.18 0.52 -0.21 0.51 -0.23 0.49 -0.25 0.48 -0.28 0.47 -0.3 0.45 -0.32 0.43 -0.34 0.41 -0.36 0.4 -0.38 0.38 -0.39 0.36 -0.41 0.34 -0.43 0.31 -0.44 0.29 -0.46 0.27 -0.47 0.25 -0.48 0.23 -0.5 0.2 -0.5 0.17 -0.52 0.15 -0.53 0.12 -0.53 0.1 -0.55 0.07 -0.55 0.04 -0.56 0.02 -0.57 5.03 0 -0.02 0.86 -0.07 0.85 -0.11 0.84 -0.15 0.82 -0.19 0.81 -0.23 0.79 -0.26 0.78 -0.3 0.76 -0.34 0.74 -0.37 0.72 -0.4 0.7 -0.43 0.67 -0.46 0.65 -0.49 0.62 -0.52 0.6 -0.55 0.57 -0.57 0.54 -0.6 0.52 -0.62 0.49 -0.64 0.46 -0.66 0.43 -0.69 0.4 -0.71 0.36 -0.72 0.33 -0.74 0.29 -0.76 0.26 -0.77 0.22 -0.79 0.18 -0.8 0.14 -0.81 0.1 -0.82 0.06 -0.83 0.02 0 0zm-108.38 -5.34l108.38 0 0 5.34 -108.38 0 0 0 0 -5.34zm-16.44 -11.25l5.03 0 0 0 0.02 0.57 0.04 0.56 0.07 0.56 0.1 0.54 0.12 0.53 0.15 0.53 0.17 0.52 0.2 0.5 0.22 0.49 0.25 0.48 0.27 0.47 0.29 0.46 0.32 0.44 0.34 0.43 0.36 0.41 0.38 0.39 0.4 0.38 0.41 0.36 0.43 0.34 0.45 0.32 0.47 0.3 0.48 0.28 0.49 0.25 0.51 0.23 0.52 0.21 0.53 0.18 0.55 0.16 0.55 0.13 0.57 0.1 0.58 0.07 0.58 0.04 0.59 0.02 0 5.34 -0.83 -0.02 -0.82 -0.06 -0.81 -0.1 -0.8 -0.14 -0.79 -0.18 -0.77 -0.22 -0.76 -0.26 -0.74 -0.29 -0.72 -0.33 -0.71 -0.36 -0.69 -0.4 -0.66 -0.43 -0.64 -0.46 -0.62 -0.49 -0.6 -0.52 -0.57 -0.54 -0.55 -0.58 -0.52 -0.6 -0.49 -0.62 -0.46 -0.65 -0.43 -0.67 -0.4 -0.69 -0.37 -0.72 -0.34 -0.74 -0.3 -0.76 -0.26 -0.78 -0.23 -0.79 -0.19 -0.81 -0.15 -0.83 -0.11 -0.83 -0.07 -0.85 -0.02 -0.86 0 0zm5.03 -98l0 98 -5.03 0 0 -98 0 0 5.03 0zm11.41 -16.6l0 5.34 0 0 -0.59 0.02 -0.58 0.04 -0.58 0.07 -0.57 0.1 -0.55 0.13 -0.55 0.16 -0.53 0.18 -0.52 0.21 -0.51 0.23 -0.49 0.25 -0.48 0.28 -0.47 0.3 -0.45 0.32 -0.43 0.34 -0.41 0.36 -0.4 0.38 -0.38 0.39 -0.36 0.41 -0.34 0.43 -0.32 0.44 -0.29 0.46 -0.27 0.47 -0.25 0.48 -0.22 0.49 -0.2 0.5 -0.17 0.52 -0.15 0.53 -0.12 0.53 -0.1 0.54 -0.07 0.56 -0.04 0.56 -0.02 0.57 -5.03 0 0.02 -0.86 0.07 -0.85 0.11 -0.83 0.15 -0.83 0.19 -0.81 0.23 -0.79 0.26 -0.78 0.3 -0.76 0.34 -0.74 0.37 -0.72 0.4 -0.69 0.43 -0.67 0.46 -0.65 0.49 -0.62 0.52 -0.6 0.55 -0.58 0.57 -0.54 0.6 -0.52 0.62 -0.49 0.64 -0.46 0.66 -0.43 0.69 -0.4 0.71 -0.36 0.72 -0.33 0.74 -0.29 0.76 -0.26 0.77 -0.22 0.79 -0.18 0.8 -0.14 0.81 -0.1 0.82 -0.06 0.83 -0.02 0 0z"/>
   </g>
   <path class="fil1" d="M30.72 102.89c1.31,-8.08 2.61,-16.16 3.92,-24.24 -0.63,8.03 -1.91,16.71 12.08,10.07 28.69,-16.48 56.73,-35.17 84.55,-54.64 -18.49,24.82 -39.4,46.11 -62.68,63.96 -6.64,3.11 -13.28,6.22 -19.91,9.32 -7.11,1.35 -13.02,-0.35 -17.95,-4.48z"/>
   <g style="clip-path:url(#id0)">
    <g>
     <path id="_1" class="fil2" d="M19.29 100.46l9.14 -23.87 16.65 7.09c-9.62,14.23 1.25,20.02 29.05,18.83l-23.5 24.8 -31.34 -26.85z"/>
    </g>
   </g>
   <path class="fil3" d="M30.72 102.89c1.31,-8.08 2.61,-16.16 3.92,-24.24 -0.63,8.03 -1.91,16.71 12.08,10.07 28.69,-16.48 56.73,-35.17 84.55,-54.64 -18.49,24.82 -39.4,46.11 -62.68,63.96 -6.64,3.11 -13.28,6.22 -19.91,9.32 -7.11,1.35 -13.02,-0.35 -17.95,-4.48z"/>
   <path class="fil4" d="M23.7 55.9c7.57,-10.66 17.18,-16.94 28.24,-20.14 -17.69,45.73 -31.46,87.27 17.95,61.35 -8.97,6.7 -19.8,12.36 -30.03,18.28 -15.26,9.41 -26.91,-2.76 -23.83,-21.44 1.64,-13.2 4.29,-25.83 7.67,-38.04z"/>
   <g style="clip-path:url(#id1)">
    <g>
     <path id="_1_0" class="fil5" d="M4.44 90.77l8.32 -13.8c3.15,26.47 15.84,40.35 46.84,30.02l-30.36 19.95 -20.4 -10.07 -4.41 -26.11z"/>
    </g>
   </g>
   <path class="fil3" d="M23.7 55.9c7.57,-10.66 17.18,-16.94 28.24,-20.14 -17.69,45.73 -31.46,87.27 17.95,61.35 -8.97,6.7 -19.8,12.36 -30.03,18.28 -15.26,9.41 -26.91,-2.76 -23.83,-21.44 1.64,-13.2 4.29,-25.83 7.67,-38.04z"/>
   <path class="fil6" d="M26.55 46.91c-1.11,3.74 -2.22,7.48 -3.34,11.22 4.9,-8.54 14.49,-15.8 21.89,-18.19 9.92,-3.21 10.42,3.64 13.6,12.38 8.39,23.05 13.8,47.37 26.85,60.08 6.26,7.89 18.55,4.97 18.77,-7.09 0,-9.7 -8.98,-6.71 -14.2,-21.26 -5.24,-14.05 -9.44,-28.84 -14.75,-42.78 -4.16,-10.94 -12.16,-31.97 -24.75,-30.92 -5.57,0.46 -10.56,5.64 -14.9,13.31 -4.36,7.69 -6.65,14.74 -9.18,23.25z"/>
   <g style="clip-path:url(#id2)">
    <g>
     <path id="_1_1" class="fil7" d="M41 2.94c-4.46,9.7 -8.92,19.39 -13.38,29.09 10.17,15.73 20.35,-23.93 31.99,0.19 13.47,24.39 27.23,61.91 40.15,60.6 -7.18,-32.07 -14.36,-64.15 -21.54,-96.22 -12.41,2.11 -24.81,4.23 -37.21,6.34z"/>
     <path class="fil8" d="M102.05 127.91c4.46,-9.7 8.92,-19.39 13.38,-29.09 -12.92,-20.35 -17.25,35.03 -41.97,-16.88 -10.39,-21.82 -18.59,-40.69 -29.19,-39.62 7.18,32.07 13.38,59.86 20.57,91.93 12.41,-2.11 24.81,-4.23 37.21,-6.34z"/>
    </g>
   </g>
   <path class="fil3" d="M26.55 46.91c-1.11,3.74 -2.22,7.48 -3.34,11.22 4.9,-8.54 14.49,-15.8 21.89,-18.19 9.92,-3.21 10.42,3.64 13.6,12.38 8.39,23.05 13.8,47.37 26.85,60.08 6.26,7.89 18.55,4.97 18.77,-7.09 0,-9.7 -8.98,-6.71 -14.2,-21.26 -5.24,-14.05 -9.44,-28.84 -14.75,-42.78 -4.16,-10.94 -12.16,-31.97 -24.75,-30.92 -5.57,0.46 -10.56,5.64 -14.9,13.31 -4.36,7.69 -6.65,14.74 -9.18,23.25z"/>
  </g>
 </g>
</svg>
