<?xml version="1.0" encoding="UTF-8"?>
<!DOCTYPE svg PUBLIC "-//W3C//DTD SVG 1.1//EN" "http://www.w3.org/Graphics/SVG/1.1/DTD/svg11.dtd">
<!-- Creator: CorelDRAW 2021.5 -->
<svg xmlns="http://www.w3.org/2000/svg" xml:space="preserve" width="4.01044in" height="0.980992in" version="1.1" style="shape-rendering:geometricPrecision; text-rendering:geometricPrecision; image-rendering:optimizeQuality; fill-rule:evenodd; clip-rule:evenodd"
viewBox="0 0 3990.56 976.13"
 xmlns:xlink="http://www.w3.org/1999/xlink"
 xmlns:xodm="http://www.corel.com/coreldraw/odm/2003">
 <defs>
  <style type="text/css">
   <![CDATA[
    .fil3 {fill:none}
    .fil7 {fill:#AB4B9B}
    .fil6 {fill:#9C3993}
    .fil8 {fill:#7D3B93}
    .fil5 {fill:#6574B6}
    .fil1 {fill:#6C3D94}
    .fil4 {fill:#494B9C}
    .fil2 {fill:#403780}
    .fil9 {fill:#373435;fill-rule:nonzero}
    .fil0 {fill:#A8CF45;fill-rule:nonzero}
   ]]>
  </style>
    <clipPath id="id0">
     <path d="M242.71 765.51c10.31,-60.12 20.63,-120.24 30.95,-180.36 -4.99,59.77 -15.07,124.34 95.42,74.92 226.65,-122.63 448.21,-261.68 667.98,-406.51 -146.07,184.63 -311.29,343.05 -495.18,475.88 -52.44,23.12 -104.88,46.25 -157.32,69.37 -56.21,10.04 -102.83,-2.63 -141.85,-33.3z"/>
    </clipPath>
    <clipPath id="id1">
     <path d="M187.26 415.88c59.81,-79.31 135.77,-126.03 223.08,-149.84 -139.73,340.22 -248.54,649.32 141.85,456.46 -70.84,49.88 -156.4,91.93 -237.27,135.97 -120.58,70.04 -212.61,-20.51 -188.27,-159.55 12.95,-98.24 33.9,-192.18 60.61,-283.03z"/>
    </clipPath>
    <clipPath id="id2">
     <path d="M209.75 349.02c-8.79,27.83 -17.58,55.68 -26.36,83.51 38.67,-63.52 114.51,-117.56 172.95,-135.38 78.35,-23.88 82.36,27.09 107.48,92.1 66.27,171.5 109.04,352.48 212.16,447.02 49.43,58.73 146.58,37 148.3,-52.72 -0,-72.15 -70.93,-49.94 -112.19,-158.16 -41.37,-104.55 -74.58,-214.55 -116.51,-318.29 -32.89,-81.39 -96.06,-237.89 -195.58,-230.09 -44.01,3.45 -83.39,41.98 -117.7,99 -34.44,57.25 -52.58,109.7 -72.55,173.02z"/>
    </clipPath>
 </defs>
 <g id="Layer_x0020_1">
  <metadata id="CorelCorpID_0Corel-Layer"/>
  <g id="logo.cdr">
   <g>
    <path class="fil0" d="M992.58 39.76l-869.09 0 0 -39.76 869.09 0 0 0 0 39.76zm123.49 83.73l-39.76 0 0 0 -0.11 -4.3 -0.33 -4.23 -0.53 -4.16 -0.74 -4.11 -0.94 -4.04 -1.13 -3.95 -1.32 -3.87 -1.5 -3.79 -1.68 -3.71 -1.85 -3.61 -2.03 -3.51 -2.18 -3.4 -2.35 -3.29 -2.5 -3.18 -2.64 -3.05 -2.79 -2.92 -2.92 -2.78 -3.05 -2.65 -3.18 -2.5 -3.29 -2.34 -3.41 -2.19 -3.51 -2.03 -3.6 -1.85 -3.7 -1.68 -3.8 -1.5 -3.88 -1.32 -3.94 -1.13 -4.04 -0.93 -4.11 -0.74 -4.16 -0.53 -4.23 -0.33 -4.3 -0.11 0 -39.76 6.32 0.16 6.25 0.47 6.18 0.79 6.07 1.09 5.97 1.39 5.87 1.68 5.74 1.95 5.6 2.22 5.47 2.48 5.33 2.74 5.17 2.98 5.01 3.22 4.84 3.45 4.66 3.67 4.48 3.88 4.29 4.09 4.09 4.29 3.89 4.48 3.66 4.66 3.45 4.84 3.22 5.01 2.98 5.17 2.74 5.32 2.48 5.46 2.23 5.61 1.95 5.74 1.68 5.86 1.38 5.97 1.09 6.07 0.79 6.18 0.47 6.25 0.16 6.32 0 0zm-39.76 729.14l0 -729.14 39.76 0 0 729.14 0 0 -39.76 0zm-83.72 123.49l0 -39.76 0 0 4.3 -0.11 4.23 -0.33 4.16 -0.53 4.11 -0.74 4.04 -0.93 3.95 -1.13 3.87 -1.32 3.79 -1.5 3.71 -1.68 3.6 -1.85 3.51 -2.03 3.4 -2.18 3.29 -2.35 3.18 -2.5 3.05 -2.64 2.92 -2.78 2.79 -2.92 2.64 -3.05 2.5 -3.18 2.35 -3.29 2.19 -3.4 2.03 -3.51 1.85 -3.6 1.68 -3.71 1.5 -3.79 1.32 -3.87 1.13 -3.95 0.94 -4.04 0.74 -4.11 0.53 -4.16 0.33 -4.23 0.11 -4.3 39.76 0 -0.16 6.32 -0.47 6.25 -0.79 6.18 -1.09 6.07 -1.38 5.97 -1.68 5.86 -1.95 5.74 -2.23 5.61 -2.48 5.46 -2.74 5.33 -2.98 5.16 -3.21 5.01 -3.45 4.84 -3.66 4.66 -3.89 4.48 -4.09 4.29 -4.29 4.09 -4.48 3.88 -4.65 3.66 -4.84 3.45 -5.01 3.22 -5.16 2.98 -5.33 2.74 -5.46 2.48 -5.61 2.23 -5.74 1.95 -5.86 1.67 -5.97 1.39 -6.07 1.09 -6.18 0.79 -6.25 0.47 -6.32 0.16 0 0zm-869.09 -39.76l869.09 0 0 39.76 -869.09 0 0 0 0 -39.76zm-123.49 -83.73l39.76 0 0 0 0.11 4.3 0.33 4.23 0.53 4.16 0.74 4.11 0.94 4.04 1.12 3.95 1.32 3.88 1.5 3.8 1.68 3.7 1.85 3.6 2.02 3.5 2.19 3.41 2.34 3.29 2.5 3.17 2.64 3.05 2.79 2.92 2.92 2.79 3.04 2.64 3.17 2.5 3.29 2.35 3.4 2.18 3.51 2.03 3.61 1.85 3.71 1.68 3.79 1.5 3.87 1.32 3.95 1.13 4.04 0.93 4.11 0.74 4.16 0.53 4.23 0.33 4.3 0.11 0 39.76 -6.32 -0.16 -6.25 -0.47 -6.18 -0.79 -6.07 -1.09 -5.97 -1.39 -5.86 -1.67 -5.74 -1.95 -5.61 -2.23 -5.46 -2.48 -5.32 -2.74 -5.17 -2.98 -5.01 -3.22 -4.84 -3.45 -4.66 -3.66 -4.48 -3.89 -4.29 -4.09 -4.09 -4.29 -3.88 -4.48 -3.67 -4.66 -3.45 -4.84 -3.21 -5 -2.99 -5.17 -2.74 -5.33 -2.48 -5.47 -2.22 -5.6 -1.95 -5.74 -1.68 -5.87 -1.38 -5.97 -1.09 -6.07 -0.79 -6.18 -0.47 -6.25 -0.16 -6.32 0 0zm39.76 -729.14l0 729.14 -39.76 0 0 -729.14 0 0 39.76 0zm83.73 -123.49l0 39.76 0 0 -4.3 0.11 -4.23 0.33 -4.16 0.53 -4.11 0.74 -4.04 0.93 -3.94 1.13 -3.88 1.32 -3.8 1.5 -3.7 1.68 -3.61 1.85 -3.51 2.03 -3.4 2.19 -3.29 2.34 -3.17 2.5 -3.05 2.64 -2.92 2.79 -2.79 2.92 -2.64 3.05 -2.5 3.17 -2.34 3.29 -2.19 3.4 -2.03 3.51 -1.85 3.61 -1.68 3.7 -1.5 3.8 -1.32 3.88 -1.12 3.95 -0.94 4.04 -0.74 4.11 -0.53 4.16 -0.33 4.23 -0.11 4.3 -39.76 0 0.16 -6.32 0.47 -6.25 0.79 -6.18 1.09 -6.07 1.38 -5.97 1.68 -5.87 1.95 -5.74 2.22 -5.61 2.48 -5.47 2.74 -5.32 2.98 -5.17 3.22 -5 3.45 -4.84 3.67 -4.66 3.88 -4.48 4.09 -4.29 4.29 -4.09 4.47 -3.88 4.67 -3.67 4.84 -3.45 5 -3.22 5.17 -2.98 5.32 -2.74 5.47 -2.48 5.61 -2.22 5.73 -1.95 5.87 -1.68 5.97 -1.39 6.07 -1.09 6.18 -0.79 6.25 -0.47 6.32 -0.16 0 0z"/>
   </g>
   <path class="fil1" d="M242.71 765.51c10.31,-60.12 20.63,-120.24 30.95,-180.36 -4.99,59.77 -15.07,124.34 95.42,74.92 226.65,-122.63 448.21,-261.68 667.98,-406.51 -146.07,184.63 -311.29,343.05 -495.18,475.88 -52.44,23.12 -104.88,46.25 -157.32,69.37 -56.21,10.04 -102.83,-2.63 -141.85,-33.3z"/>
   <g style="clip-path:url(#id0)">
    <g>
     <path id="_1" class="fil2" d="M152.44 747.48l72.21 -177.59 131.53 52.73c-76.02,105.87 9.84,148.95 229.54,140.13l-185.69 184.52 -247.59 -199.78z"/>
    </g>
   </g>
   <path class="fil3" d="M242.71 765.51c10.31,-60.12 20.63,-120.24 30.95,-180.36 -4.99,59.77 -15.07,124.34 95.42,74.92 226.65,-122.63 448.21,-261.68 667.98,-406.51 -146.07,184.63 -311.29,343.05 -495.18,475.88 -52.44,23.12 -104.88,46.25 -157.32,69.37 -56.21,10.04 -102.83,-2.63 -141.85,-33.3z"/>
   <path class="fil4" d="M187.26 415.88c59.81,-79.31 135.77,-126.03 223.08,-149.84 -139.73,340.22 -248.54,649.32 141.85,456.46 -70.84,49.88 -156.4,91.93 -237.27,135.97 -120.58,70.04 -212.61,-20.51 -188.27,-159.55 12.95,-98.24 33.9,-192.18 60.61,-283.03z"/>
   <g style="clip-path:url(#id1)">
    <g>
     <path id="_1_0" class="fil5" d="M35.1 675.33l65.77 -102.67c24.88,196.97 125.12,300.21 370.09,223.37l-239.85 148.45 -161.19 -74.92 -34.82 -194.24z"/>
    </g>
   </g>
   <path class="fil3" d="M187.26 415.88c59.81,-79.31 135.77,-126.03 223.08,-149.84 -139.73,340.22 -248.54,649.32 141.85,456.46 -70.84,49.88 -156.4,91.93 -237.27,135.97 -120.58,70.04 -212.61,-20.51 -188.27,-159.55 12.95,-98.24 33.9,-192.18 60.61,-283.03z"/>
   <path class="fil6" d="M209.75 349.02c-8.79,27.83 -17.58,55.68 -26.36,83.51 38.67,-63.52 114.51,-117.56 172.95,-135.38 78.35,-23.88 82.36,27.09 107.48,92.1 66.27,171.5 109.04,352.48 212.16,447.02 49.43,58.73 146.58,37 148.3,-52.72 -0,-72.15 -70.93,-49.94 -112.19,-158.16 -41.37,-104.55 -74.58,-214.55 -116.51,-318.29 -32.89,-81.39 -96.06,-237.89 -195.58,-230.09 -44.01,3.45 -83.39,41.98 -117.7,99 -34.44,57.25 -52.58,109.7 -72.55,173.02z"/>
   <g style="clip-path:url(#id2)">
    <g>
     <path id="_1_1" class="fil7" d="M323.95 21.86c-35.25,72.14 -70.5,144.29 -105.74,216.44 80.38,117 160.76,-178.05 252.74,1.39 106.46,181.47 215.11,460.65 317.23,450.91 -56.74,-238.63 -113.48,-477.27 -170.22,-715.9 -98,15.72 -196.01,31.45 -294.01,47.17z"/>
     <path class="fil8" d="M806.23 951.67c35.25,-72.14 70.49,-144.29 105.74,-216.43 -102.08,-151.4 -136.3,260.62 -331.61,-125.63 -82.09,-162.34 -146.89,-302.74 -230.62,-294.76 56.74,238.63 105.74,445.36 162.48,684 98,-15.72 196,-31.45 294.01,-47.17z"/>
    </g>
   </g>
   <path class="fil3" d="M209.75 349.02c-8.79,27.83 -17.58,55.68 -26.36,83.51 38.67,-63.52 114.51,-117.56 172.95,-135.38 78.35,-23.88 82.36,27.09 107.48,92.1 66.27,171.5 109.04,352.48 212.16,447.02 49.43,58.73 146.58,37 148.3,-52.72 -0,-72.15 -70.93,-49.94 -112.19,-158.16 -41.37,-104.55 -74.58,-214.55 -116.51,-318.29 -32.89,-81.39 -96.06,-237.89 -195.58,-230.09 -44.01,3.45 -83.39,41.98 -117.7,99 -34.44,57.25 -52.58,109.7 -72.55,173.02z"/>
   <g>
    <path class="fil9" d="M1410.36 898.55l-29.49 0 -11.68 -31.86 -54.25 0 -11.24 31.86 -28.96 0 52.51 -139.95 28.94 0 54.17 139.95zm-50.06 -55.5l-18.79 -51.8 -18.26 51.8 37.05 0zm64.63 55.5l0 -139.95 26.51 0 55.67 93.79 0 -93.79 25.31 0 0 139.95 -27.36 0 -54.81 -91.99 0 91.99 -25.32 0zm187.96 0l0 -139.95 27.39 0 0 139.95 -27.39 0zm46.25 -45.34l26.63 -2.74c1.61,9.21 4.82,15.96 9.7,20.3 4.88,4.33 11.46,6.48 19.75,6.48 8.75,0 15.36,-1.92 19.79,-5.76 4.45,-3.85 6.67,-8.34 6.67,-13.49 0,-3.32 -0.94,-6.13 -2.8,-8.47 -1.86,-2.31 -5.13,-4.33 -9.79,-6.02 -3.18,-1.18 -10.42,-3.19 -21.76,-6.13 -14.58,-3.78 -24.8,-8.41 -30.69,-13.91 -8.28,-7.72 -12.41,-17.14 -12.41,-28.24 0,-7.14 1.94,-13.85 5.82,-20.07 3.91,-6.22 9.51,-10.94 16.85,-14.2 7.33,-3.26 16.14,-4.89 26.54,-4.89 16.9,0 29.65,3.88 38.18,11.67 8.56,7.78 13.04,18.14 13.48,31.15l-27.39 0.98c-1.16,-7.24 -3.65,-12.42 -7.46,-15.58 -3.8,-3.16 -9.53,-4.76 -17.15,-4.76 -7.88,0 -14.05,1.7 -18.49,5.08 -2.86,2.19 -4.31,5.09 -4.31,8.73 0,3.33 1.36,6.16 4.07,8.51 3.43,3.03 11.78,6.15 25.03,9.41 13.25,3.23 23.05,6.62 29.38,10.07 6.35,3.48 11.33,8.2 14.91,14.23 3.59,6.03 5.37,13.45 5.37,22.28 0,8.02 -2.13,15.54 -6.44,22.54 -4.32,7 -10.4,12.22 -18.26,15.6 -7.87,3.42 -17.7,5.12 -29.44,5.12 -17.1,0 -30.22,-4.07 -39.39,-12.25 -9.17,-8.15 -14.61,-20.04 -16.4,-35.64zm127.51 -23.79c0,-14.27 2.08,-26.25 6.2,-35.96 3.06,-7.14 7.27,-13.55 12.59,-19.22 5.32,-5.66 11.15,-9.86 17.47,-12.64 8.44,-3.68 18.17,-5.54 29.19,-5.54 19.95,0 35.88,6.42 47.88,19.22 11.96,12.84 17.94,30.66 17.94,53.49 0,22.64 -5.95,40.36 -17.82,53.13 -11.87,12.8 -27.77,19.19 -47.64,19.19 -20.11,0 -36.13,-6.35 -48.01,-19.09 -11.87,-12.7 -17.82,-30.23 -17.82,-52.58zm28.15 -0.94c0,15.86 3.56,27.88 10.64,36.1 7.07,8.18 16.09,12.28 26.98,12.28 10.93,0 19.87,-4.08 26.89,-12.18 6.98,-8.15 10.48,-20.33 10.48,-36.59 0,-16.06 -3.4,-28.05 -10.24,-35.94 -6.8,-7.92 -15.84,-11.85 -27.13,-11.85 -11.28,0 -20.37,4.01 -27.27,11.99 -6.9,8.02 -10.36,20.07 -10.36,36.19zm172.03 37.56l25.12 -2.87c0.6,5.32 2.21,9.25 4.76,11.79 2.55,2.58 5.95,3.85 10.14,3.85 5.32,0 9.82,-2.58 13.53,-7.69 3.71,-5.12 6.07,-15.73 7.11,-31.8 -6.51,7.82 -14.64,11.73 -24.43,11.73 -10.62,0 -19.8,-4.23 -27.52,-12.73 -7.72,-8.51 -11.56,-19.54 -11.56,-33.17 0,-14.2 4.07,-25.64 12.22,-34.3 8.15,-8.7 18.54,-13.03 31.14,-13.03 13.69,0 24.97,5.5 33.75,16.49 8.79,11.01 13.19,29.09 13.19,54.3 0,25.61 -4.56,44.11 -13.7,55.44 -9.12,11.37 -21.02,17.04 -35.69,17.04 -10.55,0 -19.04,-2.93 -25.57,-8.79 -6.48,-5.83 -10.68,-14.6 -12.5,-26.25zm58.37 -58.71c0,-8.63 -1.93,-15.34 -5.77,-20.1 -3.8,-4.75 -8.24,-7.13 -13.29,-7.13 -4.78,0 -8.74,1.95 -11.89,5.86 -3.18,3.91 -4.76,10.3 -4.76,19.16 0,9.02 1.73,15.64 5.16,19.87 3.43,4.2 7.71,6.32 12.88,6.32 4.96,0 9.16,-2.02 12.56,-6.09 3.4,-4.08 5.1,-10.04 5.1,-17.89zm89.66 -49.51c13.09,0 23.32,4.86 30.72,14.57 8.79,11.47 13.2,30.52 13.2,57.11 0,26.55 -4.45,45.64 -13.29,57.23 -7.33,9.58 -17.53,14.37 -30.63,14.37 -13.16,0 -23.78,-5.24 -31.83,-15.74 -8.07,-10.48 -12.09,-29.21 -12.09,-56.12 0,-26.42 4.43,-45.45 13.28,-57.05 7.34,-9.58 17.54,-14.37 30.64,-14.37zm0 22.28c-3.09,0 -5.86,1.04 -8.25,3.13 -2.42,2.05 -4.31,5.76 -5.64,11.14 -1.76,6.94 -2.64,18.67 -2.64,35.12 0,16.48 0.79,27.79 2.36,33.94 1.58,6.16 3.56,10.26 5.95,12.32 2.4,2.05 5.13,3.06 8.23,3.06 3.08,0 5.84,-1.04 8.28,-3.12 2.39,-2.06 4.28,-5.77 5.6,-11.15 1.77,-6.87 2.65,-18.57 2.65,-35.05 0,-16.45 -0.79,-27.76 -2.37,-33.91 -1.58,-6.17 -3.56,-10.3 -5.95,-12.35 -2.39,-2.09 -5.13,-3.13 -8.21,-3.13zm105.06 -22.28c13.1,0 23.32,4.86 30.72,14.57 8.79,11.47 13.2,30.52 13.2,57.11 0,26.55 -4.45,45.64 -13.29,57.23 -7.33,9.58 -17.53,14.37 -30.63,14.37 -13.16,0 -23.78,-5.24 -31.83,-15.74 -8.05,-10.48 -12.09,-29.21 -12.09,-56.12 0,-26.42 4.43,-45.45 13.28,-57.05 7.34,-9.58 17.53,-14.37 30.64,-14.37zm0 22.28c-3.08,0 -5.86,1.04 -8.25,3.13 -2.42,2.05 -4.31,5.76 -5.63,11.14 -1.77,6.94 -2.65,18.67 -2.65,35.12 0,16.48 0.79,27.79 2.36,33.94 1.58,6.16 3.56,10.26 5.95,12.32 2.39,2.05 5.14,3.06 8.22,3.06 3.08,0 5.85,-1.04 8.28,-3.12 2.39,-2.06 4.28,-5.77 5.6,-11.15 1.77,-6.87 2.65,-18.57 2.65,-35.05 0,-16.45 -0.79,-27.76 -2.36,-33.91 -1.59,-6.17 -3.56,-10.3 -5.96,-12.35 -2.39,-2.09 -5.13,-3.13 -8.21,-3.13zm127.44 118.45l-25.89 0 0 -101.31c-9.45,9.19 -20.59,16 -33.44,20.39l0 -24.43c6.78,-2.28 14.12,-6.61 22.01,-13.03 7.93,-6.39 13.35,-13.85 16.31,-22.35l21.01 0 0 140.73zm101.81 -74.67l0 -26.77 25.88 0 0 26.77 -25.88 0zm0 74.67l0 -26.77 25.88 0 0 26.77 -25.88 0zm192.46 -24.82l0 24.82 -90.87 0c0.98,-9.45 3.94,-18.37 8.85,-26.81 4.91,-8.43 14.64,-19.65 29.12,-33.62 11.68,-11.27 18.84,-18.93 21.48,-22.94 3.55,-5.54 5.35,-11.01 5.35,-16.45 0,-5.99 -1.54,-10.59 -4.65,-13.81 -3.09,-3.23 -7.37,-4.82 -12.82,-4.82 -5.41,0 -9.7,1.69 -12.9,5.08 -3.18,3.35 -5.01,8.96 -5.52,16.81l-25.87 -2.68c1.54,-14.78 6.35,-25.4 14.48,-31.85 8.12,-6.42 18.26,-9.64 30.45,-9.64 13.35,0 23.83,3.75 31.48,11.21 7.61,7.46 11.43,16.75 11.43,27.85 0,6.32 -1.1,12.32 -3.28,18.05 -2.17,5.7 -5.63,11.66 -10.39,17.91 -3.12,4.17 -8.82,10.13 -17,17.92 -8.21,7.78 -13.41,12.93 -15.58,15.5 -2.2,2.54 -3.97,5.06 -5.32,7.46l51.57 0zm61.32 -115.91c13.1,0 23.33,4.86 30.73,14.57 8.78,11.47 13.19,30.52 13.19,57.11 0,26.55 -4.45,45.64 -13.29,57.23 -7.33,9.58 -17.53,14.37 -30.63,14.37 -13.16,0 -23.77,-5.24 -31.83,-15.74 -8.05,-10.48 -12.09,-29.21 -12.09,-56.12 0,-26.42 4.43,-45.45 13.28,-57.05 7.34,-9.58 17.55,-14.37 30.64,-14.37zm0 22.28c-3.08,0 -5.86,1.04 -8.24,3.13 -2.43,2.05 -4.31,5.76 -5.64,11.14 -1.77,6.94 -2.64,18.67 -2.64,35.12 0,16.48 0.78,27.79 2.36,33.94 1.57,6.16 3.56,10.26 5.95,12.32 2.39,2.05 5.13,3.06 8.21,3.06 3.09,0 5.86,-1.04 8.29,-3.12 2.38,-2.06 4.28,-5.77 5.6,-11.15 1.76,-6.87 2.64,-18.57 2.64,-35.05 0,-16.45 -0.79,-27.76 -2.36,-33.91 -1.58,-6.17 -3.56,-10.3 -5.96,-12.35 -2.39,-2.09 -5.12,-3.13 -8.21,-3.13zm127.44 118.45l-25.87 0 0 -101.31c-9.45,9.19 -20.59,16 -33.44,20.39l0 -24.43c6.77,-2.28 14.11,-6.61 22.01,-13.03 7.92,-6.39 13.35,-13.85 16.3,-22.35l21 0 0 140.73zm39.12 -35.93l25.88 -2.77c0.75,6.06 2.93,10.88 6.55,14.43 3.66,3.55 7.83,5.32 12.59,5.32 5.41,0 10.01,-2.28 13.75,-6.88 3.76,-4.59 5.64,-11.49 5.64,-20.72 0,-8.67 -1.86,-15.14 -5.6,-19.48 -3.71,-4.33 -8.56,-6.48 -14.54,-6.48 -7.46,0 -14.17,3.38 -20.09,10.16l-20.96 -3.13 13.21 -72.71 68.57 0 0 25.02 -48.89 0 -4.1 23.81c5.76,-2.96 11.68,-4.46 17.73,-4.46 11.52,0 21.29,4.33 29.28,13.03 8.03,8.66 12.02,19.93 12.02,33.81 0,11.57 -3.24,21.86 -9.7,30.94 -8.81,12.38 -21.03,18.57 -36.64,18.57 -12.5,0 -22.71,-3.49 -30.57,-10.42 -7.91,-6.98 -12.59,-16.29 -14.15,-28.05zm249.54 -15.67l26.45 8.4c-4.05,15.41 -10.83,26.84 -20.27,34.33 -9.44,7.46 -21.41,11.21 -35.92,11.21 -17.97,0 -32.75,-6.35 -44.32,-19.05 -11.56,-12.7 -17.35,-30.07 -17.35,-52.13 0,-23.29 5.83,-41.4 17.43,-54.3 11.62,-12.91 26.93,-19.36 45.87,-19.36 16.56,0 30.01,5.08 40.33,15.22 6.17,5.99 10.77,14.59 13.86,25.84l-27.02 6.65c-1.61,-7.24 -4.94,-12.97 -10.01,-17.17 -5.1,-4.21 -11.28,-6.29 -18.51,-6.29 -10.05,0 -18.2,3.71 -24.43,11.17 -6.27,7.43 -9.38,19.49 -9.38,36.16 0,17.66 3.08,30.26 9.22,37.76 6.16,7.52 14.16,11.27 24.02,11.27 7.26,0 13.53,-2.38 18.77,-7.17 5.21,-4.79 8.99,-12.28 11.26,-22.55zm44.24 -17.53c0,-14.27 2.08,-26.25 6.21,-35.96 3.04,-7.14 7.26,-13.55 12.59,-19.22 5.32,-5.66 11.15,-9.86 17.47,-12.64 8.44,-3.68 18.17,-5.54 29.18,-5.54 19.95,0 35.89,6.42 47.9,19.22 11.95,12.84 17.93,30.66 17.93,53.49 0,22.64 -5.95,40.36 -17.82,53.13 -11.87,12.8 -27.76,19.19 -47.63,19.19 -20.12,0 -36.14,-6.35 -48.01,-19.09 -11.87,-12.7 -17.82,-30.23 -17.82,-52.58zm28.14 -0.94c0,15.86 3.56,27.88 10.65,36.1 7.07,8.18 16.09,12.28 26.98,12.28 10.92,0 19.86,-4.08 26.88,-12.18 6.99,-8.15 10.49,-20.33 10.49,-36.59 0,-16.06 -3.4,-28.05 -10.23,-35.94 -6.8,-7.92 -15.84,-11.85 -27.14,-11.85 -11.28,0 -20.37,4.01 -27.27,11.99 -6.89,8.02 -10.36,20.07 -10.36,36.19zm124.08 70.07l0 -139.95 41.02 0 24.25 95.45 23.96 -95.45 41.12 0 0 139.95 -25.31 0 -0.11 -110.17 -26.65 110.17 -26.32 0 -26.54 -110.17 -0.09 110.17 -25.32 0zm157.73 0l0 -139.95 43.8 0c16.59,0 27.39,0.69 32.44,2.08 7.73,2.12 14.23,6.68 19.44,13.72 5.24,7.03 7.85,16.12 7.85,27.27 0,8.59 -1.52,15.8 -4.51,21.66 -3.02,5.87 -6.82,10.46 -11.45,13.81 -4.63,3.33 -9.35,5.54 -14.14,6.62 -6.51,1.34 -15.93,2.02 -28.27,2.02l-17.77 0 0 52.77 -27.39 0zm27.39 -116.3l0 39.88 14.9 0c10.74,0 17.88,-0.75 21.5,-2.22 3.62,-1.47 6.46,-3.75 8.5,-6.91 2.05,-3.13 3.08,-6.75 3.08,-10.91 0,-5.12 -1.44,-9.31 -4.31,-12.64 -2.9,-3.32 -6.51,-5.4 -10.95,-6.25 -3.24,-0.62 -9.77,-0.95 -19.59,-0.95l-13.13 0zm206.44 116.3l-29.5 0 -11.68 -31.86 -54.25 0 -11.24 31.86 -28.96 0 52.51 -139.95 28.94 0 54.18 139.95zm-50.06 -55.5l-18.8 -51.8 -18.26 51.8 37.06 0zm64.63 55.5l0 -139.95 26.5 0 55.67 93.79 0 -93.79 25.31 0 0 139.95 -27.36 0 -54.81 -91.99 0 91.99 -25.31 0zm171.93 0l0 -58.9 -49.59 -81.05 32.02 0 31.98 55.42 31.14 -55.42 31.42 0 -49.58 81.25 0 58.7 -27.39 0z"/>
    <path class="fil9" d="M1364.65 393.21l-70.4 0 132.88 -318.15 70.4 0 135.08 318.15 -73.92 0 -29.04 -76.11 -137.72 0 -27.28 76.11zm48.84 -132.31l94.6 0 -47.96 -121.68 -46.64 121.68zm334.4 -185.85l174.68 0 0 57.08 -164.12 0c-34.61,0 -51.92,13.86 -51.92,41.6 0,11.8 3.96,20.35 11.88,25.66 7.62,5.9 17.74,8.85 30.36,8.85l87.56 0c17.01,0 32.12,1.18 45.32,3.54 12.03,2.66 24.42,9.81 37.18,21.46 12.76,11.65 19.14,33.26 19.14,64.82 0,8.56 -0.66,16.45 -1.98,23.67 -1.32,7.23 -3.96,15.71 -7.92,25.44 -3.96,9.73 -10.71,18.29 -20.24,25.66 -9.54,7.38 -20.9,12.54 -34.1,15.49 -12.03,3.24 -27.57,4.87 -46.64,4.87l-176.88 0 0 -57.08 166.32 0c16.43,0 29.11,-2.43 38.06,-7.3 8.95,-4.87 13.42,-14.09 13.42,-27.66l0 -6.64c-0.88,-9.14 -3.23,-15.78 -7.04,-19.91 -4.99,-4.42 -10.63,-7.37 -17.01,-8.85 -6.31,-1.47 -13.86,-2.21 -22.66,-2.21l-78.47 0c-33.81,0 -59.91,-7.08 -78.25,-21.24 -18.4,-14.16 -27.57,-37.91 -27.57,-71.24 0,-16.81 2.79,-31.86 8.36,-45.13 5.57,-13.27 13.2,-23.52 22.88,-30.75 9.68,-7.23 20.83,-12.32 33.44,-15.27 11.44,-3.24 26.84,-4.87 46.2,-4.87zm239.8 0l69.52 0 0 318.15 -69.52 0 0 -318.15zm163.68 318.15l-70.4 0 132.88 -318.15 70.4 0 135.08 318.15 -73.92 0 -29.04 -76.11 -137.72 0 -27.28 76.11zm48.84 -132.31l94.6 0 -47.96 -121.68 -46.64 121.68zm309.76 132.31l-68.2 0 0 -318.15 84.48 0 128.92 229.21 -2.64 -229.21 66.88 0 0 318.15 -76.56 0 -135.52 -240.27 2.64 240.27zm431.64 0l-70.4 0 132.88 -318.15 70.4 0 135.08 318.15 -73.92 0 -29.04 -76.11 -137.72 0 -27.28 76.11zm48.84 -132.31l94.6 0 -47.96 -121.68 -46.64 121.68zm444.4 74.34l0 -74.34 -88.44 0 0 -56.2 156.2 0 0 188.5 -142.12 0 -4.84 0c-7.04,0 -13.86,0 -20.61,0 -5.57,-0.89 -10.34,-1.55 -14.23,-1.99 -3.96,-0.44 -8.43,-1.33 -13.42,-2.66 -4.99,-1.33 -11.8,-3.61 -20.61,-6.86 -8.8,-3.24 -19.8,-10.62 -33.15,-22.13 -13.28,-11.5 -23.69,-28.02 -31.09,-49.56 -7.48,-21.53 -11.22,-44.84 -11.22,-69.91l0 -19.03c0,-15.63 1.76,-30.09 5.28,-43.36 3.52,-13.28 8.21,-25.52 14.08,-36.73 5.86,-11.21 12.83,-21.02 20.9,-29.43 8.07,-8.41 19.94,-16.59 35.64,-24.55 15.69,-7.96 39.97,-11.95 72.82,-11.95l142.56 0 0 55.31 -142.56 0c-19.36,0 -34.47,4.5 -45.32,13.5 -10.85,9 -18.48,21.17 -22.88,36.51 -4.4,15.34 -6.6,32.44 -6.6,51.33l0 4.87c0,30.97 5.21,55.16 15.62,72.57 10.41,17.41 30.14,26.11 59.18,26.11l74.8 0zm190.08 57.97l-66.44 0 0 -318.15 163.24 0c8.21,0 16.65,0.44 25.3,1.33 8.65,0.89 18.33,2.58 29.04,5.09 10.71,2.51 20.75,8.4 30.14,17.7 9.39,9.29 16.28,19.99 20.68,32.08 3.81,12.98 5.72,26.25 5.72,39.82 0,15.05 -2.2,28.62 -6.6,40.71 -4.99,12.39 -12.03,22.64 -21.12,30.75 -9.09,8.11 -20.97,13.94 -35.64,17.48l77.88 133.19 -74.36 0 -69.96 -124.34 -77.88 0 0 124.34zm81.4 -261.07l-81.4 0 0 80.53 81.4 0c12.03,0 22.08,-0.74 30.14,-2.21 8.07,-1.47 15.18,-5.31 21.34,-11.5 5.28,-6.2 7.92,-15.2 7.92,-27 0,-17.11 -5.21,-28.02 -15.62,-32.74 -10.42,-4.72 -25.01,-7.08 -43.78,-7.08zm182.16 -57.08l69.52 0 0 318.15 -69.52 0 0 -318.15z"/>
    <path class="fil9" d="M1449.7 487.05l0 29.97 -60.08 0c-10.66,0 -19.14,2.56 -25.44,7.67 -6.3,5.12 -10.33,10.8 -12.11,17.05 -1.77,6.25 -3.07,12.02 -3.87,17.3 -0.81,5.28 -1.21,10.52 -1.21,15.71l0 3.17 0 2.68c0,2.27 0.08,4.75 0.24,7.43 0.16,2.68 0.49,5.93 0.97,9.74 0.49,3.82 1.57,7.92 3.27,12.3 1.7,4.39 4.07,8.45 7.11,12.18 4.04,4.22 8.4,6.86 13.08,7.92 4.64,1.05 10.7,1.58 18.09,1.58l59.96 0 0 30.45 -61.33 0c-11.59,0 -21.44,-1.01 -29.55,-3.04 -8.16,-2.03 -16.31,-6.13 -24.51,-12.3 -9.81,-8.44 -16.79,-18.6 -20.91,-30.45 -4.08,-11.85 -6.14,-24.68 -6.14,-38.49l0 -10.48c0,-6.33 0.65,-12.51 1.94,-18.51 1.29,-6.01 2.91,-11.69 4.85,-17.06 1.94,-5.36 4.2,-10.07 6.78,-14.13 2.59,-4.06 6.38,-8.61 11.38,-13.64 5.01,-5.03 11.06,-8.73 18.17,-11.09 7.11,-2.35 13.77,-3.94 19.99,-4.75 6.22,-0.81 12.48,-1.22 18.77,-1.22l60.56 0zm27.38 175.17l0 -175.17 36.58 0 0 70.9 67.1 0 0 -70.9 36.34 0 0 175.17 -36.34 0 0 -73.33 -67.1 0 0 73.33 -36.58 0zm307.66 -175.17l0 30.45 -60.08 0c-13.08,0 -23.22,3.45 -30.4,10.35 -7.18,6.9 -10.78,17.09 -10.78,30.58l101.26 0 0 30.45 -101.26 0c0,14.62 2.66,24.89 7.99,30.82 5.33,5.93 10.3,9.42 14.9,10.48 4.6,1.05 10.7,1.58 18.29,1.58l60.08 0 0 30.45 -61.53 0c-11.63,0 -21.52,-1.01 -29.67,-3.04 -8.16,-2.03 -16.35,-6.13 -24.59,-12.3 -9.85,-8.44 -16.83,-18.6 -20.95,-30.45 -4.12,-11.85 -6.17,-24.68 -6.17,-38.49l0.48 -10.48c0,-6.33 0.65,-12.51 1.94,-18.51 1.29,-6.01 2.91,-11.69 4.84,-17.06 1.94,-5.36 4.2,-10.07 6.79,-14.13 2.59,-4.06 6.38,-8.61 11.38,-13.64 5.01,-5.03 11.06,-8.73 18.17,-11.09 7.11,-2.35 13.77,-3.94 19.99,-4.75 6.22,-0.81 12.47,-1.22 18.77,-1.22l60.56 0zm69.77 175.17l-37.55 0 0 -175.17 54.02 0 44.09 134.24 44.33 -134.24 53.54 0 0 175.17 -36.1 0 2.91 -136.18 -44.33 136.18 -39 0 -45.78 -137.4 3.87 137.4zm194.28 -175.17l38.27 0 0 175.17 -38.27 0 0 -175.17zm205.91 0l0 29.97 -60.08 0c-10.66,0 -19.14,2.56 -25.44,7.67 -6.3,5.12 -10.33,10.8 -12.11,17.05 -1.77,6.25 -3.07,12.02 -3.87,17.3 -0.81,5.28 -1.21,10.52 -1.21,15.71l0 3.17 0 2.68c0,2.27 0.08,4.75 0.24,7.43 0.16,2.68 0.49,5.93 0.97,9.74 0.49,3.82 1.57,7.92 3.27,12.3 1.7,4.39 4.07,8.45 7.11,12.18 4.04,4.22 8.4,6.86 13.08,7.92 4.64,1.05 10.7,1.58 18.09,1.58l59.96 0 0 30.45 -61.33 0c-11.59,0 -21.44,-1.01 -29.55,-3.04 -8.16,-2.03 -16.31,-6.13 -24.51,-12.3 -9.81,-8.44 -16.79,-18.6 -20.91,-30.45 -4.08,-11.85 -6.14,-24.68 -6.14,-38.49l0 -10.48c0,-6.33 0.65,-12.51 1.94,-18.51 1.29,-6.01 2.91,-11.69 4.85,-17.06 1.94,-5.36 4.2,-10.07 6.78,-14.13 2.59,-4.06 6.38,-8.61 11.38,-13.64 5.01,-5.03 11.06,-8.73 18.17,-11.09 7.11,-2.35 13.77,-3.94 19.99,-4.75 6.22,-0.81 12.48,-1.22 18.77,-1.22l60.56 0zm42.63 175.17l-38.76 0 73.16 -175.17 38.76 0 74.37 175.17 -40.7 0 -15.99 -41.9 -75.83 0 -15.02 41.9zm26.89 -72.84l52.08 0 -26.4 -67 -25.68 67zm248.55 43.85l0 28.99 -46.51 0 -3.15 0 -2.66 0c-6.79,0 -12.8,-0.33 -18.05,-0.98 -5.25,-0.65 -10.94,-2.35 -17.08,-5.12 -6.14,-2.76 -11.55,-6.58 -16.23,-11.45 -4.68,-4.88 -8.12,-10.11 -10.3,-15.71 -2.18,-5.61 -3.67,-11.58 -4.48,-17.91 -0.81,-6.33 -1.21,-12.91 -1.21,-19.73l0 -104.27 36.33 0 0 96.23c0,4.22 0,7.83 0,10.84 0,3 0.29,7.11 0.85,12.3 0.56,5.19 2.22,9.91 4.97,14.13 2.42,4.22 6.46,7.39 12.11,9.5 5.65,2.11 12.92,3.17 21.8,3.17l43.61 0zm70.5 -146.18l96.17 0 0 31.43 -90.36 0c-19.06,0 -28.59,7.64 -28.59,22.9 0,6.5 2.18,11.21 6.54,14.13 4.2,3.25 9.77,4.87 16.72,4.87l48.2 0c9.37,0 17.69,0.65 24.95,1.95 6.62,1.46 13.44,5.4 20.47,11.82 7.02,6.41 10.54,18.31 10.54,35.69 0,4.71 -0.36,9.06 -1.09,13.04 -0.73,3.98 -2.18,8.65 -4.36,14.01 -2.18,5.36 -5.89,10.07 -11.14,14.13 -5.25,4.06 -11.51,6.9 -18.77,8.53 -6.62,1.79 -15.18,2.68 -25.68,2.68l-97.38 0 0 -31.43 91.57 0c9.05,0 16.03,-1.34 20.96,-4.02 4.92,-2.68 7.39,-7.75 7.39,-15.22l0 -3.66c-0.49,-5.03 -1.78,-8.69 -3.88,-10.96 -2.75,-2.44 -5.85,-4.06 -9.37,-4.87 -3.47,-0.81 -7.63,-1.22 -12.47,-1.22l-43.21 0c-18.61,0 -32.98,-3.9 -43.08,-11.69 -10.13,-7.8 -15.18,-20.87 -15.18,-39.22 0,-9.26 1.54,-17.54 4.61,-24.85 3.07,-7.31 7.26,-12.95 12.59,-16.93 5.33,-3.98 11.47,-6.78 18.41,-8.41 6.3,-1.79 14.78,-2.68 25.44,-2.68zm282.71 31.43l-42.4 0 0 51.41 44.33 0c22.12,0 33.18,-8.53 33.18,-25.58 0,-10.23 -3.11,-17.1 -9.33,-20.59 -6.22,-3.49 -14.82,-5.24 -25.8,-5.24zm-42.4 143.74l-36.58 0 0 -175.17 79.45 0c12.11,0 22.13,0.53 30.04,1.59 7.91,1.06 14.94,3.57 21.08,7.47 8.07,4.55 14.13,11.25 18.17,20.06 4.04,8.81 6.06,18.27 6.06,28.38 0,8.97 -1.57,17.46 -4.72,25.46 -3.15,8 -7.67,14.21 -13.57,18.72 -5.9,4.47 -11.14,7.31 -15.74,8.57 -4.6,1.22 -8.28,2.11 -11.02,2.68 -2.74,0.57 -5.49,0.85 -8.23,0.85l-20.59 0 -44.33 0 0 61.39zm303.54 -175.17l-72.19 175.17 -38.03 0 -75.58 -175.17 41.18 0 52.33 130.34 53.54 -130.34 38.76 0zm85.27 175.17l-38.03 0 0 -144.22 -55.71 0 0 -30.45 149.95 0 0 30.45 -56.2 0 0 144.22zm94.48 0l-28.83 0 0 -30.45 28.83 0 0 30.45zm214.63 -28.99l0 28.99 -46.51 0 -3.15 0 -2.66 0c-6.78,0 -12.8,-0.33 -18.05,-0.98 -5.25,-0.65 -10.94,-2.35 -17.08,-5.12 -6.14,-2.76 -11.55,-6.58 -16.23,-11.45 -4.69,-4.88 -8.12,-10.11 -10.3,-15.71 -2.18,-5.61 -3.67,-11.58 -4.48,-17.91 -0.8,-6.33 -1.21,-12.91 -1.21,-19.73l0 -104.27 36.34 0 0 96.23c0,4.22 0,7.83 0,10.84 0,3 0.28,7.11 0.85,12.3 0.57,5.19 2.23,9.91 4.97,14.13 2.42,4.22 6.46,7.39 12.11,9.5 5.65,2.11 12.92,3.17 21.8,3.17l43.61 0zm95.21 28.99l-38.03 0 0 -144.22 -55.72 0 0 -30.45 149.95 0 0 30.45 -56.2 0 0 144.22zm154.31 0l-80.18 0 0 -175.17 79.46 0c18.09,0 32.86,2.88 44.33,8.65 11.46,5.77 19.62,13.28 24.46,22.54 4.85,9.26 8.24,17.58 10.17,24.97 1.94,7.39 2.91,15.47 2.91,24.24l0 10.72c0,30.7 -6.38,51.36 -19.1,62 -12.72,10.64 -23.3,16.97 -31.73,19 -8.48,2.03 -18.57,3.04 -30.33,3.04zm-1.21 -144.71l-42.4 0 0 114.26 42.4 0c7.42,0 13.48,-0.53 18.17,-1.58 4.69,-1.05 9.05,-3.69 13.08,-7.92 4.85,-5.52 7.96,-12.3 9.33,-20.34 1.37,-8.04 2.06,-17.1 2.06,-27.17 0,-9.74 -0.69,-18.67 -2.06,-26.8 -1.37,-8.12 -4.16,-14.62 -8.36,-19.49 -4.2,-4.87 -8.12,-7.75 -11.75,-8.65 -3.63,-0.89 -7.06,-1.5 -10.3,-1.83 -3.23,-0.33 -6.62,-0.49 -10.17,-0.49zm128.15 144.71l-28.83 0 0 -30.45 28.83 0 0 30.45z"/>
   </g>
  </g>
 </g>
</svg>
